<?xml version="1.0" encoding="UTF-8"?>
<!DOCTYPE svg PUBLIC "-//W3C//DTD SVG 1.1//EN" "http://www.w3.org/Graphics/SVG/1.1/DTD/svg11.dtd">
<svg xmlns="http://www.w3.org/2000/svg" version="1.1" width="60px" height="60px" style="shape-rendering:geometricPrecision; text-rendering:geometricPrecision; image-rendering:optimizeQuality; fill-rule:evenodd; clip-rule:evenodd" xmlns:xlink="http://www.w3.org/1999/xlink">
<g><path style="opacity:1" fill="#e2e6c3" d="M 4.5,-0.5 C 9.5,-0.5 14.5,-0.5 19.5,-0.5C 20.4608,2.42607 21.1274,5.42607 21.5,8.5C 19.7615,7.56614 18.0948,7.56614 16.5,8.5C 15.9724,10.3361 15.3058,12.0028 14.5,13.5C 14.5,13.1667 14.5,12.8333 14.5,12.5C 11.9021,7.65588 8.56879,3.32255 4.5,-0.5 Z"/></g>
<g><path style="opacity:1" fill="#f8dc40" d="M 29.5,-0.5 C 32.8333,-0.5 36.1667,-0.5 39.5,-0.5C 38.8333,2.5 38.1667,5.5 37.5,8.5C 35.0401,8.69855 32.7067,9.36521 30.5,10.5C 31.2092,13.3844 32.2092,16.051 33.5,18.5C 33.0679,19.7095 32.4013,20.7095 31.5,21.5C 30.5084,21.6716 29.8417,21.3382 29.5,20.5C 29.5,13.5 29.5,6.5 29.5,-0.5 Z"/></g>
<g><path style="opacity:1" fill="#f6a21c" d="M 39.5,-0.5 C 44.1667,-0.5 48.8333,-0.5 53.5,-0.5C 50.5136,3.81697 47.1803,7.81697 43.5,11.5C 42.7659,10.2921 42.4326,8.95875 42.5,7.5C 40.7085,7.36596 39.0418,7.69929 37.5,8.5C 38.1667,5.5 38.8333,2.5 39.5,-0.5 Z"/></g>
<g><path style="opacity:1" fill="#dec493" d="M 19.5,-0.5 C 22.8333,-0.5 26.1667,-0.5 29.5,-0.5C 29.5,6.5 29.5,13.5 29.5,20.5C 27.9991,21.7515 26.3325,22.7515 24.5,23.5C 23.8333,22.5 23.1667,21.5 22.5,20.5C 23.8484,19.3994 25.3484,18.3994 27,17.5C 27.2868,15.1093 27.7868,12.7759 28.5,10.5C 26.2933,9.36521 23.9599,8.69855 21.5,8.5C 21.1274,5.42607 20.4608,2.42607 19.5,-0.5 Z"/></g>
<g><path style="opacity:1" fill="#fdfdfa" d="M 21.5,8.5 C 23.9599,8.69855 26.2933,9.36521 28.5,10.5C 27.7868,12.7759 27.2868,15.1093 27,17.5C 25.3484,18.3994 23.8484,19.3994 22.5,20.5C 19.6097,20.722 16.943,20.0553 14.5,18.5C 13.9478,16.9974 13.9478,15.3307 14.5,13.5C 15.3058,12.0028 15.9724,10.3361 16.5,8.5C 18.0948,7.56614 19.7615,7.56614 21.5,8.5 Z"/></g>
<g><path style="opacity:1" fill="#fffcf8" d="M 43.5,11.5 C 43.3284,12.4916 43.6618,13.1583 44.5,13.5C 45.0522,15.3307 45.0522,16.9974 44.5,18.5C 41.9795,19.7853 39.3128,20.4519 36.5,20.5C 35.7095,19.5987 34.7095,18.9321 33.5,18.5C 32.2092,16.051 31.2092,13.3844 30.5,10.5C 32.7067,9.36521 35.0401,8.69855 37.5,8.5C 39.0418,7.69929 40.7085,7.36596 42.5,7.5C 42.4326,8.95875 42.7659,10.2921 43.5,11.5 Z"/></g>
<g><path style="opacity:1" fill="#d4e27d" d="M -0.5,-0.5 C 1.16667,-0.5 2.83333,-0.5 4.5,-0.5C 8.56879,3.32255 11.9021,7.65588 14.5,12.5C 11.9057,12.318 9.739,11.318 8,9.5C 5.28086,10.4438 2.44753,10.7771 -0.5,10.5C -0.5,6.83333 -0.5,3.16667 -0.5,-0.5 Z"/></g>
<g><path style="opacity:1" fill="#f5682b" d="M 53.5,-0.5 C 55.1667,-0.5 56.8333,-0.5 58.5,-0.5C 58.5,0.166667 58.8333,0.5 59.5,0.5C 59.5,3.83333 59.5,7.16667 59.5,10.5C 54.0789,9.90029 49.0789,10.9003 44.5,13.5C 43.6618,13.1583 43.3284,12.4916 43.5,11.5C 47.1803,7.81697 50.5136,3.81697 53.5,-0.5 Z"/></g>
<g><path style="opacity:1" fill="#bad15a" d="M 14.5,12.5 C 14.5,12.8333 14.5,13.1667 14.5,13.5C 13.9478,15.3307 13.9478,16.9974 14.5,18.5C 16.943,20.0553 19.6097,20.722 22.5,20.5C 23.1667,21.5 23.8333,22.5 24.5,23.5C 23.8333,23.8333 23.1667,24.1667 22.5,24.5C 14.6712,20.4199 7.0045,16.0865 -0.5,11.5C -0.5,11.1667 -0.5,10.8333 -0.5,10.5C 2.44753,10.7771 5.28086,10.4438 8,9.5C 9.739,11.318 11.9057,12.318 14.5,12.5 Z"/></g>
<g><path style="opacity:1" fill="#f2552f" d="M 59.5,10.5 C 59.5,11.1667 59.5,11.8333 59.5,12.5C 54.4997,14.6643 49.833,17.331 45.5,20.5C 42.6484,22.0909 39.6484,23.4242 36.5,24.5C 35.8333,24.1667 35.1667,23.8333 34.5,23.5C 34.9321,22.2905 35.5987,21.2905 36.5,20.5C 39.3128,20.4519 41.9795,19.7853 44.5,18.5C 45.0522,16.9974 45.0522,15.3307 44.5,13.5C 49.0789,10.9003 54.0789,9.90029 59.5,10.5 Z"/></g>
<g><path style="opacity:1" fill="#e45062" d="M 59.5,12.5 C 59.5,14.5 59.5,16.5 59.5,18.5C 57.6612,19.7525 55.8278,19.7525 54,18.5C 52.4918,20.8384 50.3252,21.8384 47.5,21.5C 47.1583,20.6618 46.4916,20.3284 45.5,20.5C 49.833,17.331 54.4997,14.6643 59.5,12.5 Z"/></g>
<g><path style="opacity:1" fill="#fa963d" d="M 33.5,18.5 C 34.7095,18.9321 35.7095,19.5987 36.5,20.5C 35.5987,21.2905 34.9321,22.2905 34.5,23.5C 33.2905,23.0679 32.2905,22.4013 31.5,21.5C 32.4013,20.7095 33.0679,19.7095 33.5,18.5 Z"/></g>
<g><path style="opacity:1" fill="#5fd34f" d="M -0.5,11.5 C 7.0045,16.0865 14.6712,20.4199 22.5,24.5C 22.5,25.5 22.5,26.5 22.5,27.5C 21.1667,27.5 19.8333,27.5 18.5,27.5C 17.2659,24.5927 15.2659,22.2593 12.5,20.5C 11.1455,22.5212 9.47881,24.1879 7.5,25.5C 4.87283,24.9084 2.20616,24.5751 -0.5,24.5C -0.5,20.1667 -0.5,15.8333 -0.5,11.5 Z"/></g>
<g><path style="opacity:1" fill="#fafcfc" d="M 18.5,27.5 C 18.5,28.5 18.5,29.5 18.5,30.5C 17.2659,33.4073 15.2659,35.7407 12.5,37.5C 11.16,36.1335 9.82669,34.8001 8.5,33.5C 7.37471,31.8712 6.04138,30.3712 4.5,29C 5.7101,27.9609 6.7101,26.7942 7.5,25.5C 9.47881,24.1879 11.1455,22.5212 12.5,20.5C 15.2659,22.2593 17.2659,24.5927 18.5,27.5 Z"/></g>
<g><path style="opacity:1" fill="#fcfcfc" d="M 29.5,20.5 C 29.8417,21.3382 30.5084,21.6716 31.5,21.5C 32.2905,22.4013 33.2905,23.0679 34.5,23.5C 35.1667,23.8333 35.8333,24.1667 36.5,24.5C 36.5,25.5 36.5,26.5 36.5,27.5C 36.5,28.5 36.5,29.5 36.5,30.5C 36.7709,32.3797 36.1042,33.713 34.5,34.5C 32.6675,35.2485 31.0009,36.2485 29.5,37.5C 27.9991,36.2485 26.3325,35.2485 24.5,34.5C 22.8958,33.713 22.2291,32.3797 22.5,30.5C 22.5,29.5 22.5,28.5 22.5,27.5C 22.5,26.5 22.5,25.5 22.5,24.5C 23.1667,24.1667 23.8333,23.8333 24.5,23.5C 26.3325,22.7515 27.9991,21.7515 29.5,20.5 Z"/></g>
<g><path style="opacity:1" fill="#fdfcfd" d="M 45.5,20.5 C 46.4916,20.3284 47.1583,20.6618 47.5,21.5C 48.1667,22.8333 49.1667,23.8333 50.5,24.5C 51.6253,26.1288 52.9586,27.6288 54.5,29C 53.2899,30.0391 52.2899,31.2058 51.5,32.5C 49.5212,33.8121 47.8545,35.4788 46.5,37.5C 43.7341,35.7407 41.7341,33.4073 40.5,30.5C 40.5,29.1667 40.5,27.8333 40.5,26.5C 42.1667,24.5 43.8333,22.5 45.5,20.5 Z"/></g>
<g><path style="opacity:1" fill="#e24f7b" d="M 59.5,18.5 C 59.5,20.1667 59.5,21.8333 59.5,23.5C 56.5448,24.1587 53.5448,24.4921 50.5,24.5C 49.1667,23.8333 48.1667,22.8333 47.5,21.5C 50.3252,21.8384 52.4918,20.8384 54,18.5C 55.8278,19.7525 57.6612,19.7525 59.5,18.5 Z"/></g>
<g><path style="opacity:1" fill="#eb5285" d="M 45.5,20.5 C 43.8333,22.5 42.1667,24.5 40.5,26.5C 39.2921,27.2341 37.9587,27.5674 36.5,27.5C 36.5,26.5 36.5,25.5 36.5,24.5C 39.6484,23.4242 42.6484,22.0909 45.5,20.5 Z"/></g>
<g><path style="opacity:1" fill="#c769bb" d="M 59.5,23.5 C 59.5,27.1667 59.5,30.8333 59.5,34.5C 56.9333,33.525 54.2666,32.8583 51.5,32.5C 52.2899,31.2058 53.2899,30.0391 54.5,29C 52.9586,27.6288 51.6253,26.1288 50.5,24.5C 53.5448,24.4921 56.5448,24.1587 59.5,23.5 Z"/></g>
<g><path style="opacity:1" fill="#2d9dcb" d="M 18.5,27.5 C 19.8333,27.5 21.1667,27.5 22.5,27.5C 22.5,28.5 22.5,29.5 22.5,30.5C 21.1667,30.5 19.8333,30.5 18.5,30.5C 18.5,29.5 18.5,28.5 18.5,27.5 Z"/></g>
<g><path style="opacity:1" fill="#c274bf" d="M 40.5,26.5 C 40.5,27.8333 40.5,29.1667 40.5,30.5C 39.5,30.5 38.5,30.5 37.5,30.5C 37.1667,30.5 36.8333,30.5 36.5,30.5C 36.5,29.5 36.5,28.5 36.5,27.5C 37.9587,27.5674 39.2921,27.2341 40.5,26.5 Z"/></g>
<g><path style="opacity:1" fill="#4da0ba" d="M -0.5,24.5 C 2.20616,24.5751 4.87283,24.9084 7.5,25.5C 6.7101,26.7942 5.7101,27.9609 4.5,29C 6.04138,30.3712 7.37471,31.8712 8.5,33.5C 5.39147,33.2641 2.39147,33.5975 -0.5,34.5C -0.5,31.1667 -0.5,27.8333 -0.5,24.5 Z"/></g>
<g><path style="opacity:1" fill="#8c4ccc" d="M 37.5,30.5 C 38.5,30.5 39.5,30.5 40.5,30.5C 41.7341,33.4073 43.7341,35.7407 46.5,37.5C 47.8545,35.4788 49.5212,33.8121 51.5,32.5C 54.2666,32.8583 56.9333,33.525 59.5,34.5C 59.5,37.5 59.5,40.5 59.5,43.5C 58.5416,43.9528 57.7083,44.6195 57,45.5C 51.1066,41.2827 44.94,37.4494 38.5,34C 37.6634,32.9887 37.33,31.8221 37.5,30.5 Z"/></g>
<g><path style="opacity:1" fill="#f9fcfe" d="M 20.5,37.5 C 26.688,38.468 29.3547,42.1347 28.5,48.5C 24.4432,48.8478 20.4432,49.5145 16.5,50.5C 16.7678,48.901 16.4345,47.5676 15.5,46.5C 15.405,44.2143 14.7384,42.2143 13.5,40.5C 15.3949,38.7587 17.7282,37.7587 20.5,37.5 Z"/></g>
<g><path style="opacity:1" fill="#f9fafb" d="M 36.5,37.5 C 39.9164,37.5275 42.9164,38.5275 45.5,40.5C 44.2616,42.2143 43.595,44.2143 43.5,46.5C 42.5655,47.5676 42.2322,48.901 42.5,50.5C 41.1667,50.5 39.8333,50.5 38.5,50.5C 36.0392,49.469 33.3725,48.8023 30.5,48.5C 30.0164,43.3031 32.0164,39.6364 36.5,37.5 Z"/></g>
<g><path style="opacity:1" fill="#3463cb" d="M 18.5,30.5 C 19.8333,30.5 21.1667,30.5 22.5,30.5C 22.2291,32.3797 22.8958,33.713 24.5,34.5C 23.4097,35.8571 22.0764,36.8571 20.5,37.5C 17.7282,37.7587 15.3949,38.7587 13.5,40.5C 11.834,43.1638 9.50066,43.8305 6.5,42.5C 4.14955,43.8611 1.81621,45.1944 -0.5,46.5C -0.5,42.5 -0.5,38.5 -0.5,34.5C 2.39147,33.5975 5.39147,33.2641 8.5,33.5C 9.82669,34.8001 11.16,36.1335 12.5,37.5C 15.2659,35.7407 17.2659,33.4073 18.5,30.5 Z"/></g>
<g><path style="opacity:1" fill="#7a54bc" d="M 36.5,30.5 C 36.8333,30.5 37.1667,30.5 37.5,30.5C 37.33,31.8221 37.6634,32.9887 38.5,34C 44.94,37.4494 51.1066,41.2827 57,45.5C 57.7083,44.6195 58.5416,43.9528 59.5,43.5C 59.5,44.8333 59.5,46.1667 59.5,47.5C 58.5267,48.984 57.1933,49.484 55.5,49C 55.8333,48.6667 56.1667,48.3333 56.5,48C 53.5184,47.502 50.5184,47.3354 47.5,47.5C 47.1156,45.0706 46.449,42.7373 45.5,40.5C 42.9164,38.5275 39.9164,37.5275 36.5,37.5C 35.8333,36.5 35.1667,35.5 34.5,34.5C 36.1042,33.713 36.7709,32.3797 36.5,30.5 Z"/></g>
<g><path style="opacity:1" fill="#2b84dc" d="M 13.5,40.5 C 14.7384,42.2143 15.405,44.2143 15.5,46.5C 11.8197,50.183 8.48636,54.183 5.5,58.5C 3.43525,58.4828 1.43525,58.1495 -0.5,57.5C -0.5,53.8333 -0.5,50.1667 -0.5,46.5C 1.81621,45.1944 4.14955,43.8611 6.5,42.5C 9.50066,43.8305 11.834,43.1638 13.5,40.5 Z"/></g>
<g><path style="opacity:1" fill="#6d7ba0" d="M 43.5,46.5 C 46.9683,50.1405 50.3016,53.9739 53.5,58C 55.1341,58.4935 56.8008,58.6602 58.5,58.5C 58.5,58.8333 58.5,59.1667 58.5,59.5C 39.1667,59.5 19.8333,59.5 0.5,59.5C 0.5,58.8333 0.166667,58.5 -0.5,58.5C -0.5,58.1667 -0.5,57.8333 -0.5,57.5C 1.43525,58.1495 3.43525,58.4828 5.5,58.5C 13.5,58.5 21.5,58.5 29.5,58.5C 32.8333,58.5 36.1667,58.5 39.5,58.5C 39.5339,55.8015 38.8672,53.3015 37.5,51C 37.7284,50.6012 38.0618,50.4346 38.5,50.5C 39.8333,50.5 41.1667,50.5 42.5,50.5C 42.2322,48.901 42.5655,47.5676 43.5,46.5 Z"/></g>
<g><path style="opacity:1" fill="#42b6e4" d="M 24.5,34.5 C 26.3325,35.2485 27.9991,36.2485 29.5,37.5C 29.5,44.5 29.5,51.5 29.5,58.5C 21.5,58.5 13.5,58.5 5.5,58.5C 8.48636,54.183 11.8197,50.183 15.5,46.5C 16.4345,47.5676 16.7678,48.901 16.5,50.5C 20.4432,49.5145 24.4432,48.8478 28.5,48.5C 29.3547,42.1347 26.688,38.468 20.5,37.5C 22.0764,36.8571 23.4097,35.8571 24.5,34.5 Z"/></g>
<g><path style="opacity:1" fill="#869dae" d="M 34.5,34.5 C 35.1667,35.5 35.8333,36.5 36.5,37.5C 32.0164,39.6364 30.0164,43.3031 30.5,48.5C 33.3725,48.8023 36.0392,49.469 38.5,50.5C 38.0618,50.4346 37.7284,50.6012 37.5,51C 38.8672,53.3015 39.5339,55.8015 39.5,58.5C 36.1667,58.5 32.8333,58.5 29.5,58.5C 29.5,51.5 29.5,44.5 29.5,37.5C 31.0009,36.2485 32.6675,35.2485 34.5,34.5 Z"/></g>
<g><path style="opacity:1" fill="#8a6cc0" d="M 45.5,40.5 C 46.449,42.7373 47.1156,45.0706 47.5,47.5C 50.5184,47.3354 53.5184,47.502 56.5,48C 56.1667,48.3333 55.8333,48.6667 55.5,49C 57.1933,49.484 58.5267,48.984 59.5,47.5C 59.5,51.1667 59.5,54.8333 59.5,58.5C 59.1667,58.5 58.8333,58.5 58.5,58.5C 56.8008,58.6602 55.1341,58.4935 53.5,58C 50.3016,53.9739 46.9683,50.1405 43.5,46.5C 43.595,44.2143 44.2616,42.2143 45.5,40.5 Z"/></g>
</svg>
